{"title":"World of the Dead: The Zombie Diaries 2011 BDrip 720p - TRiNiTY","uid":6903477,"size":2064068411,"categoryP":"video","categoryS":"hd___movies","magnet":"?xt=urn:btih:76e1a0670ac7ccc3d35ebb621868be431ae564a2&amp;dn=World+of+the+Dead%3A+The+Zombie+Diaries+2011+BDrip+720p+-+TRiNiTY&amp;tr=udp%3A%2F%2Ftracker.openbittorrent.com%3A80&amp;tr=udp%3A%2F%2Fopen.demonii.com%3A1337&amp;tr=udp%3A%2F%2Ftracker.coppersurfer.tk%3A6969&amp;tr=udp%3A%2F%2Fexodus.desync.com%3A6969","seeders":1,"leechers":0,"uploader":"HeroMaster","files":-1,"time":1324486990,"description":"World of the Dead: The Zombie Diaries 2011 BDrip 720p - TRiNiTY\n\n\nInformation:\n\n\nEnCoDeR :.... whitestag13\nSource : ... The Zombie Diaries 2011 BluRay 1080p AVC DTS-HD 5.1\nEncoded date : ... 2011-12-18 09:23:48\nComplete name : ... The Zombie Diaries 2011 BDrip 720p - TRiNiTY\nVideo Format : ... x264\nFile size : ... 1.90 GiB\nDuration : ... 1h 32 mn\nOverall bit rate : ... 2 990 Kbps\nIMDB : ... http://www.imdb.com/title/tt1733578/\nLanguages : ... English\nSubtitles : ... none sorry\n\n\nDetails:\n\n\nFormat : Matroska\nFormat version : Version 2\nFile size : 1.92 GiB\nDuration : 1h 32mn\nOverall bit rate : 2 990 Kbps\nEncoded date : UTC 2011-12-18 09:23:48\nWriting library : libebml v1.2.1 + libmatroska v1.1.1\n\nVideo\nID : 1\nFormat : AVC\nFormat/Info : Advanced Video Codec\nFormat profile : &lt;a class=&quot;__cf_email__&quot; href=&quot;/cdn-cgi/l/email-protection&quot; data-cfemail=&quot;4e062729260e027a607f&quot;&gt;[email&amp;#160;protected]&lt;/a&gt;&lt;script cf-hash='f9e31' type=&quot;text/javascript&quot;&gt;\n/* &lt;![CDATA[ */!function(){try{var t=&quot;currentScript&quot;in document?document.currentScript:function(){for(var t=document.getElementsByTagName(&quot;script&quot;),e=t.length;e--;)if(t[e].getAttribute(&quot;cf-hash&quot;))return t[e]}();if(t&amp;&amp;t.previousSibling){var e,r,n,i,c=t.previousSibling,a=c.getAttribute(&quot;data-cfemail&quot;);if(a){for(e=&quot;&quot;,r=parseInt(a.substr(0,2),16),n=2;a.length-n;n+=2)i=parseInt(a.substr(n,2),16)^r,e+=String.fromCharCode(i);e=document.createTextNode(e),c.parentNode.replaceChild(e,c)}}}catch(u){}}();/* ]]&gt; */&lt;/script&gt;\nFormat settings, CABAC : Yes\nFormat settings, ReFrames : 3 frames\nCodec ID : V_MPEG4/ISO/AVC\nDuration : 1h 32mn\nBit rate mode : Variable\nBit rate : 2 350 Kbps\nMaximum bit rate : 40.0 Mbps\nWidth : 1 280 pixels\nHeight : 544 pixels\nDisplay aspect ratio : 2.35:1\nFrame rate : 24.000 fps\nColor space : YUV\nChroma subsampling : 4:2:0\nBit depth : 8 bits\nScan type : Progressive\nBits/(Pixel*Frame) : 0.141\nStream size : 1.47 GiB (77%)\nWriting library : x264 core 116 r2074 2641b9e\nLanguage : English\n\nAudio\nID : 2\nFormat : AC-3\nFormat/Info : Audio Coding 3\nMode extension : CM (complete main)\nCodec ID : A_AC3\nDuration : 1h 32mn\nBit rate mode : Constant\nBit rate : 640 Kbps\nChannel(s) : 6 channels\nChannel positions : Front: L C R, Side: L R, LFE\nSampling rate : 48.0 KHz\nBit depth : 16 bits\nCompression mode : Lossy\nStream size : 421 MiB (21%)\n\n\nPoster:\n\n &lt;a href=&quot;\nhttp://i.imgur.com/jAoOB.jpg&quot; rel=&quot;nofollow&quot; target=&quot;_NEW&quot;&gt;\nhttp://i.imgur.com/jAoOB.jpg&lt;/a&gt;\n\n\nScreens:\n\n &lt;a href=&quot;\nhttp://i.imgur.com/7F6Zv.png&quot; rel=&quot;nofollow&quot; target=&quot;_NEW&quot;&gt;\nhttp://i.imgur.com/7F6Zv.png&lt;/a&gt;\n\n &lt;a href=&quot;\nhttp://i.imgur.com/XEwq8.jpg&quot; rel=&quot;nofollow&quot; target=&quot;_NEW&quot;&gt;\nhttp://i.imgur.com/XEwq8.jpg&lt;/a&gt;\n\n &lt;a href=&quot;\nhttp://i.imgur.com/E0vPC.jpg&quot; rel=&quot;nofollow&quot; target=&quot;_NEW&quot;&gt;\nhttp://i.imgur.com/E0vPC.jpg&lt;/a&gt;\n\n\nENJOY!","torrent":{"xt":"urn:btih:76e1a0670ac7ccc3d35ebb621868be431ae564a2","amp;dn":"World+of+the+Dead%3A+The+Zombie+Diaries+2011+BDrip+720p+-+TRiNiTY","amp;tr":["udp%3A%2F%2Ftracker.openbittorrent.com%3A80","udp%3A%2F%2Fopen.demonii.com%3A1337","udp%3A%2F%2Ftracker.coppersurfer.tk%3A6969","udp%3A%2F%2Fexodus.desync.com%3A6969"],"infoHash":"76e1a0670ac7ccc3d35ebb621868be431ae564a2","infoHashBuffer":{"type":"Buffer","data":[118,225,160,103,10,199,204,195,211,94,187,98,24,104,190,67,26,229,100,162]},"announce":[],"urlList":[]}}